<svg id="svg2" xmlns="http://www.w3.org/2000/svg" viewBox="0 0 513.64 508.62"><defs><style>.cls-1{fill:#dbd6d5;}</style></defs><title>earth</title><g id="g12"><path id="path16" class="cls-1" d="M186.53,163.65c21.83,6.81-24.84,29.35-9.86,14,3.95-5-1.47-11.18,8.29-12.25l.63-1.23.94-.51Zm-40.7-88.18c15.92-4.77,17.23-12.5,33.26-19.95,3.31-7.79,10.85-10.67,17.24-14.73-14.43,2.68-2.88-10.54-17.44.72,6.23-10.74-19.73-3.45-1.4-3.73-9,10.24-28.17,26.72-42.46,35-2.48-1.74,18.22-18.91.22-4.49-5.67,10.31-23.31,13.93-11.31,1.31,8.62-4.58,5.36-15.26,12.14-9.1,11.19-4.82,8.64-6,19.52-11.77-9.18-2.19-21.3,7.76-30.88,10.15,25.31-20.8-16-3.52-21.3,8.85-9.31,9.38-31.47,28.64-9.64,12C99,82.5,125.91,51,123.2,67.5,117.21,73,115,77.68,108,81.31c-11.22,12,22.32-10.55,1.68,6.25C96,96.68,98,114.71,84.31,123.27c-9,2.77-11.49,25.9-13.88,17.76-12.38-11.39,25.32-21.23,3.8-20.26-1.64-4.25-2.75,6.56-7.54-.08-5.92,8.06,1.35,18.8-10.16,16.68-10.78.09,14.36-12.11-5.15-8.64-3.06-1.45-8,6.46-12.88,13C24.42,152,19.79,167.64,14.33,185.08-1.53,235.75-1,303,19.27,350.72c44.57,105,140.9,168,251.18,163.35-10.37-4.26-34-19.11-12.32-28.59-12.28-8.6-6.53-21.62-23.36-30.15,11.14-9.59,2.43-23.66-11.59-20.64C210.71,436.57,204,421.62,191,428c-18.34,1.21-38.31-5.29-55-14-15.73-15.08-33-33.85-31.86-55,4.14-11.41,6.73-18.75,4-29.64,13.22-11.7,18.94-30.27,36.93-30.15-3.27-15,39.21-32.33,10.79-33.26-.49-14.63,1.43-19.14,7.4-33.57-1.83-24.85,25.46,6.48,31.91-7.88,13-14.78-23.31-31.19,5.32-27.13,11,.14,14.77-9.57.36-5.18-11.13-.79-21,1.79-6.78-7.54-11.51-3.33,13.09-8,.94-15.75-.66-4.44,5.05-6.26-.93-5.73-3.05-4.17,8.82-9.7-1.45-12.12,5.45-15.59,4.78-2.82,8.4-4.94,4.4-.87,10,4.92,2.86,11.42,6.16,11.16,14.2,23.87,10.52,31.64,6.52-5.21,19-9.43,22.61-14.32-9.56-17.91,19.26-26.66,6.44-10.51-5.17,12,9.47,10.13-.07,3.08,7.77,1.78,12.69-6.18,5.84-14.73-1.25-12-14.86,10.3-17.7-3.79-8.88-21.33,23.3-24.4,27.18-42.57C251,108.15,277,82.6,288.19,94.5c12.4.59,36.83,15.59,11.26,12.55.75-.84,3.88,13.68,12.57,11.84,9.82,2.32-6.67-7.06,2-6.27-1.84-7.1,6.49-11.76-2.39-17.56,14.7-2.17,2.67,6,12.43,10.45,10.12,6.85-6-23.35,8.67-12,18.49-19.58-21.84-1.26-22.57-19.11-8.18-13.9,4.83-24.24,4.71-5.13,3.52,13.85,19.38,9.85,30.2,11.87,4.84,1-25.33-13.11-15.51-17.79,7-2.21,9.7,0,5.41-4.42-2.91-5.1-8.82-11.14-11.61-16.42C305,32.32,346.1,42.38,332,31.75c-6.18.19,5-11-10.54-8.47-11,7.17-31.19-12-9.88-1.16,16.52,1.34-17.16-14-25.35-15C259.89,4,239,6.57,213.34,9.87c-14.1,1.81-11.72,12-1.18,9.83-2.85,8.15-17.15,5.94-1.84,6.64C200.7,30.4,230.08,31.6,216.68,40c7.91,3.73,20.4,9.85,11.9,11.42,17-.4-12.14,13.72-12.94,20.82-11.52,4.58-21.4,16.9-26.07,12.24,8.59,6.6-8.31,7.79-13,5.2-11.51-4.14-27.92,7.29-39.24,15.12-20.14,14-6.46-22.26,8.46-29.38ZM384.75,477.18c6.41-13.24,18.31-22.16,30.66-31.87,15.8-5.81-10.55,22.36-19.37,25.81-3.52,2.42-7,5.1-11.29,6.07Zm3-18.84c-1.71,18.89-28.86,19.39-37.55,33.29-8.79,4.4-27.59,16.82-5.39,8.74,56.79-20.66,87-50.34,105.26-69.12,41.86-42.94,68.2-108,66.68-178.72-2-5.18-11.65-50.64-13-29.07-.16,22.8-.68,45.7,1.22,68.38-6.51,30.33-15.81-35.44-17.6-18.75-6.67-1.61-7.43-5.14-15.72-9.23-6.06,9.2-19.58,20.73-28.05,13.8-5.84,17.86-20.82,2.56-26.44-1.73-14.22,12.06,20.19,25.65,24,16.29,4.58-13.94,1.75-11,10.45-5.74,11,2.34,1.84,23.45-1.51,33.05-9,12.1-13.56,29.25-28.55,39.12-8.53,11.16-19.56,17.2-19.45-2.83-10.14-14.67-23.24-18-31.45-34.59-.88-12.4-11.33-15.77-14.24-8.21-7.07-4.64,10.61,20.08,14.83,23.48,6.5,18.5,18.4,31.3,36.89,36.67,1.51,24.84,40.23-38.24,30.34-5.64-7,24.3-26.09,41.64-39,62.57-7.55,8.64-17.92,18.86-11.66,28.24Zm-37.69-6c8.16.29,18.91-13.71,8.63-12.52C351.73,440,351.94,447.47,350.08,452.31ZM257.38,61.89c6.67-9.77,13,1.67,6.6,2.24,7.95,9.08-6.8-3-4.82,11.41-2.32-.86-12.56-22.79-1.78-13.65Zm15.83,55.77c1.59,9.93-18.09,16.53-1.51,24.12-1.73,10.18-9.72,27.73-18.37,28-11.6,8.34,14.2,7.34,18.34.92,9.54,4,7.36-4.25,9.26-9.41-4.13-11.6,13.95,1.08,3.85-12.64-10.29,8.88,6.55-9.82,13.15-6.92-3-7.82-24.62,12.44-20.95-3.77-14-9.27,22.27-26.3-3.77-20.35Zm47.56,96.05c.9,5.54-1.53,14.68-5.87,21.57,10.49,12.66,31.23-9.64,47.28,0C381.83,223,339,204.92,335.34,224.53c-8.18-6.28,4.73-15.17-8.54-13.42-3.27-.56-3.31-5.92-6,2.61Zm79.06,23c13.12,7.15,27.24-6.41,11.29-14.79-6.93-8.92-9-16.28-18.43-20.21-4.78-2,10.36-23.12-5.9-13.4-11.32,5.17-5.76,20.52.4,25.3,16,9.94,14.4,4.28,12.63,23.1ZM238.54,263.88c-10.76,6.83-10-9.85-5.61-14.74-.8-5.5,8.59-19.79,5.23-3.47-2.45,5,4.06,12.18.38,18.21Zm-66.33,6c7.55,18.2,42.55-2.49,61,7.35,8.88-3.31,14.63-1.45,11.51,8.08-12.78,4.62,3.91,11.36,8.15,10.19,12.36,1.68,15.42,12.87,28.89,14.27,10.55,3.15,2.85-23.95,21.44-15,3.93,6.23,12.71,3.08,20,4.79,12.38,4.19,18.88-10.74,30.67-8.66,4.05-9.27,2.88-37.22,1.39-33-7.17,6.51-18.92,7-28.55,11.71-4.91-3.71-9.56,4.6-11.16-8.51-3.36-7.23-4-20.13-17.5-7.8-4,.85,12.46,9.83,9.07,14.51-8.28-5.41-7.46-1.07-9,6.6-7.66-4.62-13.67-24.81-24.49-33.87-11.64-5.52-12.58-16.69-20.76-18.73-6.35,16.76,27.84,28.13,22.4,33-13.63-8.34,6.38,15.67-11.65,15,.12,12.8-24.54-8.16-2.74-2.16,15.5-9.15-12.44-20-17.51-28.82-4.86-19.68-17.7,9.8-27.58-6.57-1,8.69-21.49,15.36-19.49,28.6-7.3,6.85-13.33,9.24-24.12,9Zm3-159.79c.59.16,9-14.31,7.91-5.65,20.12,2.57-1.08,21.69-11.68,8.67Z" transform="translate(-3.18 -5.69)"/></g></svg>